# Made in Blockbench 5.1.6
mtllib sphereExample.mtl

o sphere
v 0.14644660940672624 0.8535533905932737 0.3535533905932738
v 0.3535533905932738 0.8535533905932737 0.14644660940672627
v 0 1 0
v 0.20710678118654754 0.5 0.5
v 0.5 0.5 0.20710678118654757
v 0.14644660940672627 0.14644660940672627 0.35355339059327384
v 0.35355339059327384 0.14644660940672627 0.1464466094067263
v 0 0 0
v 0.3535533905932738 0.8535533905932737 -0.1464466094067262
v 0.5 0.5 -0.20710678118654752
v 0.35355339059327384 0.14644660940672627 -0.14644660940672624
v 0.1464466094067263 0.8535533905932737 -0.3535533905932738
v 0.2071067811865476 0.5 -0.5
v 0.1464466094067263 0.14644660940672627 -0.35355339059327384
v -0.1464466094067262 0.8535533905932737 -0.3535533905932738
v -0.2071067811865475 0.5 -0.5000000000000001
v -0.1464466094067262 0.14644660940672627 -0.35355339059327384
v -0.3535533905932737 0.8535533905932737 -0.14644660940672646
v -0.4999999999999999 0.5 -0.20710678118654785
v -0.35355339059327373 0.14644660940672627 -0.1464466094067265
v -0.35355339059327373 0.8535533905932737 0.14644660940672632
v -0.49999999999999994 0.5 0.20710678118654766
v -0.3535533905932738 0.14644660940672627 0.14644660940672635
v -0.1464466094067265 0.8535533905932737 0.3535533905932737
v -0.20710678118654788 0.5 0.4999999999999999
v -0.1464466094067265 0.14644660940672627 0.35355339059327373
vt 0 -0.0019218749999998508
vt 0.6919298147652172 -0.0019218749999998508
vt 0.3459649073826086 1
vt 0.14331165511739138 1
vt 0 -0.0019218749999998508
vt 0.9785531249999999 -0.0019218749999998508
vt 0.8352414698826086 1
vt 0 1
vt 0.14331165511739138 -0.0019218749999998508
vt 0.8352414698826086 -0.0019218749999998508
vt 0.9785531249999999 1
vt 0.6919298147652172 1
vt 0 1
vt 0.3459649073826086 -0.0019218750000000728
vt 0 -0.0019218749999998508
vt 0.6919298147652172 -0.0019218749999998508
vt 0.3459649073826086 1
vt 0.14331165511739138 1
vt 0 -0.0019218749999998508
vt 0.9785531249999999 -0.0019218749999998508
vt 0.8352414698826086 1
vt 0 1
vt 0.14331165511739138 -0.0019218749999998508
vt 0.8352414698826086 -0.0019218749999998508
vt 0.9785531249999999 1
vt 0.6919298147652172 1
vt 0 1
vt 0.3459649073826086 -0.0019218750000000728
vt 0 -0.0019218749999998508
vt 0.6919298147652172 -0.0019218749999998508
vt 0.3459649073826086 1
vt 0.14331165511739138 1
vt 0 -0.0019218749999998508
vt 0.9785531249999999 -0.0019218749999998508
vt 0.8352414698826086 1
vt 0 1
vt 0.14331165511739138 -0.0019218749999998508
vt 0.8352414698826086 -0.0019218749999998508
vt 0.9785531249999999 1
vt 0.6919298147652172 1
vt 0 1
vt 0.3459649073826086 -0.0019218750000000728
vt 0 -0.0019218749999998508
vt 0.6919298147652172 -0.0019218749999998508
vt 0.3459649073826086 1
vt 0.14331165511739138 1
vt 0 -0.0019218749999998508
vt 0.9785531249999999 -0.0019218749999998508
vt 0.8352414698826086 1
vt 0 1
vt 0.14331165511739138 -0.0019218749999998508
vt 0.8352414698826086 -0.0019218749999998508
vt 0.9785531249999999 1
vt 0.6919298147652172 1
vt 0 1
vt 0.3459649073826086 -0.0019218750000000728
vt 0 -0.0019218749999998508
vt 0.6919298147652172 -0.0019218749999998508
vt 0.3459649073826086 1
vt 0.14331165511739138 1
vt 0 -0.0019218749999998508
vt 0.9785531249999999 -0.0019218749999998508
vt 0.8352414698826086 1
vt 0 1
vt 0.14331165511739138 -0.0019218749999998508
vt 0.8352414698826086 -0.0019218749999998508
vt 0.9785531249999999 1
vt 0.6919298147652172 1
vt 0 1
vt 0.3459649073826086 -0.0019218750000000728
vt 0 -0.0019218749999998508
vt 0.6919298147652172 -0.0019218749999998508
vt 0.3459649073826086 1
vt 0.14331165511739138 1
vt 0 -0.0019218749999998508
vt 0.9785531249999999 -0.0019218749999998508
vt 0.8352414698826086 1
vt 0 1
vt 0.14331165511739138 -0.0019218749999998508
vt 0.8352414698826086 -0.0019218749999998508
vt 0.9785531249999999 1
vt 0.6919298147652172 1
vt 0 1
vt 0.3459649073826086 -0.0019218750000000728
vt 0 -0.0019218749999998508
vt 0.6919298147652172 -0.0019218749999998508
vt 0.3459649073826086 1
vt 0.14331165511739138 1
vt 0 -0.0019218749999998508
vt 0.9785531249999999 -0.0019218749999998508
vt 0.8352414698826086 1
vt 0 1
vt 0.14331165511739138 -0.0019218749999998508
vt 0.8352414698826086 -0.0019218749999998508
vt 0.9785531249999999 1
vt 0.6919298147652172 1
vt 0 1
vt 0.3459649073826086 -0.0019218750000000728
vt 0 -0.0019218749999998508
vt 0.6919298147652172 -0.0019218749999998508
vt 0.3459649073826086 1
vt 0.14331165511739138 1
vt 0 -0.0019218749999998508
vt 0.9785531249999999 -0.0019218749999998508
vt 0.8352414698826086 1
vt 0 1
vt 0.14331165511739138 -0.0019218749999998508
vt 0.8352414698826086 -0.0019218749999998508
vt 0.9785531249999999 1
vt 0.6919298147652172 1
vt 0 1
vt 0.3459649073826086 -0.0019218750000000728
vn 0.2705980500730985 0.9238795325112867 0.27059805007309856
vn 0.6532814824381883 0.38268343236508984 0.6532814824381883
vn 0.6532814824381882 -0.38268343236508967 0.6532814824381884
vn 0.27059805007309845 -0.9238795325112867 0.27059805007309845
vn 0.3826834323650898 0.9238795325112867 0
vn 0.9238795325112868 0.38268343236508984 0
vn 0.923879532511287 -0.38268343236508967 0
vn 0.3826834323650898 -0.9238795325112867 0
vn 0.27059805007309856 0.9238795325112867 -0.2705980500730985
vn 0.6532814824381884 0.38268343236508984 -0.6532814824381882
vn 0.6532814824381884 -0.38268343236508967 -0.6532814824381882
vn 0.27059805007309856 -0.9238795325112867 -0.27059805007309845
vn 0 0.9238795325112868 -0.38268343236508995
vn 2.626500708507132e-16 0.38268343236508984 -0.9238795325112868
vn 0 -0.38268343236508967 -0.923879532511287
vn 0 -0.9238795325112867 -0.3826834323650898
vn -0.27059805007309845 0.923879532511287 -0.2705980500730986
vn -0.6532814824381881 0.38268343236509006 -0.6532814824381884
vn -0.6532814824381881 -0.38268343236509 -0.6532814824381885
vn -0.2705980500730984 -0.923879532511287 -0.2705980500730986
vn -0.38268343236508984 0.9238795325112867 -7.252881433641309e-17
vn -0.9238795325112867 0.3826834323650898 -1.3132503542535645e-16
vn -0.9238795325112868 -0.38268343236508967 -1.8572164617766627e-16
vn -0.3826834323650899 -0.9238795325112867 -7.252881433641306e-17
vn -0.27059805007309856 0.923879532511287 0.27059805007309845
vn -0.6532814824381885 0.38268343236509 0.6532814824381881
vn -0.6532814824381884 -0.3826834323650898 0.6532814824381882
vn -0.2705980500730985 -0.923879532511287 0.27059805007309845
vn -1.4505762867282617e-16 0.9238795325112867 0.38268343236508984
vn -2.6265007085071295e-16 0.3826834323650898 0.9238795325112867
vn -3.7144329235533255e-16 -0.38268343236508967 0.9238795325112868
vn -1.4505762867282617e-16 -0.9238795325112867 0.3826834323650898
usemtl none
f 1/1/1 2/2/1 3/3/1
f 1/4/2 4/5/2 5/6/2 2/7/2
f 4/8/3 6/9/3 7/10/3 5/11/3
f 7/12/4 6/13/4 8/14/4
f 2/15/5 9/16/5 3/17/5
f 2/18/6 5/19/6 10/20/6 9/21/6
f 5/22/7 7/23/7 11/24/7 10/25/7
f 11/26/8 7/27/8 8/28/8
f 9/29/9 12/30/9 3/31/9
f 9/32/10 10/33/10 13/34/10 12/35/10
f 10/36/11 11/37/11 14/38/11 13/39/11
f 14/40/12 11/41/12 8/42/12
f 12/43/13 15/44/13 3/45/13
f 12/46/14 13/47/14 16/48/14 15/49/14
f 13/50/15 14/51/15 17/52/15 16/53/15
f 17/54/16 14/55/16 8/56/16
f 15/57/17 18/58/17 3/59/17
f 15/60/18 16/61/18 19/62/18 18/63/18
f 16/64/19 17/65/19 20/66/19 19/67/19
f 20/68/20 17/69/20 8/70/20
f 18/71/21 21/72/21 3/73/21
f 18/74/22 19/75/22 22/76/22 21/77/22
f 19/78/23 20/79/23 23/80/23 22/81/23
f 23/82/24 20/83/24 8/84/24
f 21/85/25 24/86/25 3/87/25
f 21/88/26 22/89/26 25/90/26 24/91/26
f 22/92/27 23/93/27 26/94/27 25/95/27
f 26/96/28 23/97/28 8/98/28
f 24/99/29 1/100/29 3/101/29
f 24/102/30 25/103/30 4/104/30 1/105/30
f 25/106/31 26/107/31 6/108/31 4/109/31
f 6/110/32 26/111/32 8/112/32